<svg width="200" height="250" viewBox="0 0 200 250" xmlns="http://www.w3.org/2000/svg">
  <g id="bob" transform="translate(0, 20)">
    <circle cx="100" cy="80" r="70" fill="#F0D0B0" stroke="#000" stroke-width="2"/>

    <circle cx="70" cy="65" r="15" fill="white" stroke="#000" stroke-width="2"/>
    <circle cx="130" cy="65" r="15" fill="white" stroke="#000" stroke-width="2"/>
    <circle cx="75" cy="65" r="8" fill="#000"/>
    <circle cx="135" cy="65" r="8" fill="#000"/>

    <ellipse cx="100" cy="95" rx="10" ry="15" fill="#F0D0B0" stroke="#000" stroke-width="2"/>

    <path d="M70 120 Q100 140 130 120" stroke="#000" stroke-width="3" fill="none"/>

    <path d="M30 70 Q50 20 100 40 Q150 20 170 70" stroke="#4A2C00" stroke-width="5" fill="none"/>
    <path d="M35 60 Q60 10 100 30 Q140 10 165 60" stroke="#4A2C00" stroke-width="5" fill="none"/>
    <path d="M40 50 Q70 0 100 20 Q130 0 160 50" stroke="#4A2C00" stroke-width="5" fill="none"/>
    
    <rect x="40" y="150" width="120" height="60" fill="#D32F2F" stroke="#000" stroke-width="2" />
      <polygon points="40,150 100,200 160,150" fill="#D32F2F" stroke="#000" stroke-width="2" />

      <polygon points="40,150 60,130 80,150" fill="white" stroke="#000" stroke-width="2" />
      <polygon points="160,150 140,130 120,150" fill="white" stroke="#000" stroke-width="2" />
      <line x1="80" y1="150" x2="120" y2="150" stroke="#000" stroke-width="2" />

      <polygon points="95,150 105,150 105,175 95,175" fill="#0D47A1" stroke="#000" stroke-width="2" />
      <polygon points="90,175 110,175 105,190 95,190" fill="#0D47A1" stroke="#000" stroke-width="2" />

    <line x1="40" y1="160" x2="10" y2="200" stroke="#000" stroke-width="5" />
      <line x1="160" y1="160" x2="190" y2="200" stroke="#000" stroke-width="5" />
      <circle cx="10" cy="200" r="7" fill="#F0D0B0" stroke="#000" stroke-width="2"/>
      <circle cx="190" cy="200" r="7" fill="#F0D0B0" stroke="#000" stroke-width="2"/>
  </g>
</svg>